# xmcd
#
# Track frame offsets: 
#        150
#        30148
#        67373
#        100276
#        116516
#        149217
#        170099
#        182709
#        197964
#        217286
#        249182
#
# Disc length: 3735 seconds
#
# Revision: 0
# Processed by: cddbd v1.5.2PL0 Copyright (c) Steve Scherf et al.
# Submitted via: ExactAudioCopy v0.95b4
#
DISCID=af0e950b
DTITLE=Various Artist - Poolposition 2006-02
DYEAR=2006
DGENRE=
TTITLE0=ATB - Summer rain (136 MBP Mix)
TTITLE1=Royal Melody - One night (club mix)
TTITLE2=Royal Melody - One night (Shaun Baker Club Mix)
TTITLE3=Paffendorf - Vogue - (short edit)
TTITLE4=CJ Stone - City lights (tatana rmx)
TTITLE5=Renegade Masterz - Crystal ship (extended mix)
TTITLE6=Hound dogs - I like girls (the young punx radio edit)
TTITLE7=DJ Micc - My feeling is real (short edit)
TTITLE8=Bob Sonic - Air (original mix)
TTITLE9=C-Base - Lift me up (Rio and Juliano Club mix)
TTITLE10=C-Base - Lift me up (original mix)
EXTD=
EXTT0=
EXTT1=
EXTT2=
EXTT3=
EXTT4=
EXTT5=
EXTT6=
EXTT7=
EXTT8=
EXTT9=
EXTT10=
PLAYORDER=
